<svg id="圖層_1" data-name="圖層 1" xmlns="http://www.w3.org/2000/svg" xmlns:xlink="http://www.w3.org/1999/xlink" viewBox="0 0 396.44 158.56"><defs><style>.cls-1,.cls-7,.cls-9{fill:#fff;}.cls-2{mask:url(#mask);}.cls-3,.cls-5{fill:#0078d7;}.cls-3,.cls-7,.cls-8,.cls-9{fill-rule:evenodd;}.cls-15,.cls-18,.cls-4{fill:none;}.cls-10,.cls-11,.cls-5{isolation:isolate;}.cls-5{font-size:9px;}.cls-11,.cls-5{font-family:SegoeUI, Segoe UI;}.cls-6{letter-spacing:-0.03em;}.cls-8{fill:#515150;}.cls-9{stroke:#fff;stroke-width:1.5px;}.cls-15,.cls-18,.cls-9{stroke-linejoin:round;}.cls-11{font-size:8px;fill:#595959;}.cls-12{letter-spacing:0.02em;}.cls-13{letter-spacing:0.05em;}.cls-14{letter-spacing:-0.02em;}.cls-15{stroke:#90aadb;stroke-linecap:square;stroke-width:3px;}.cls-16{fill:#90aadb;}.cls-17{mask:url(#mask-2);}.cls-18{stroke:#595959;}</style><mask id="mask" x="14.82" y="55.57" width="21.87" height="23.98" maskUnits="userSpaceOnUse"><g id="mfid9"><rect class="cls-1" x="14.82" y="55.57" width="21.87" height="23.98"/></g></mask><mask id="mask-2" x="14.82" y="55.54" width="21.65" height="23.77" maskUnits="userSpaceOnUse"><g id="mfid10"><g class="cls-2"><rect id="mfid11" class="cls-1" x="14.82" y="55.57" width="21.63" height="23.74"/></g></g></mask><symbol id="A" data-name="A" viewBox="0 0 90 80"><path class="cls-3" d="M67.68,80H22.56L0,40,22.56,0H67.44L90,40ZM43,59H53.43V48.29H43Zm0-13.41H53.43V34.88H43V45.6Zm0-13.42H53.43V21.46H43ZM29.92,59H40.37V48.29H29.92V59Zm0-13.41H40.37V34.88H29.92V45.6Zm0-13.41H40.37V21.46H29.92V32.19ZM66.25,15.6H23.75V59.26H26.6V18.53H66.25Zm.24,5.85H56V32.19H66.49V21.46Zm0,13.42H56V45.6H66.49V34.87Zm0,13.41H56V59H66.49V48.29Z"/></symbol></defs><title>工作區域 1</title><g id="shape1-11"><rect class="cls-4" x="326.54" y="86.23" width="37.5" height="37.5"/><rect class="cls-4" x="326.54" y="86.23" width="37.5" height="37.5"/><text class="cls-5" transform="translate(318.4 135.43)"><tspan class="cls-6">S</tspan><tspan x="4.49" y="0">torage table</tspan></text></g><g id="group1003-15"><g id="group1004-16"><g id="group1005-17"><g id="shape1006-18"><path class="cls-7" d="M64.63,81.47a4,4,0,0,1-4-4V51.17a4,4,0,0,1,4-4h36a4,4,0,0,1,4,4v26.3a4,4,0,0,1-4,4Z"/></g><g id="shape1007-20"><path class="cls-8" d="M100.66,48.89h-36a2.3,2.3,0,0,0-2.29,2.29v26.3a2.29,2.29,0,0,0,2.29,2.28h36A2.29,2.29,0,0,0,103,77.48V51.18A2.3,2.3,0,0,0,100.66,48.89ZM96.08,50.6H97.8v1.72H96.08Zm-3.43,0h1.72v1.72H92.65Zm8.58,26.88a.54.54,0,0,1-.57.57h-36a.54.54,0,0,1-.57-.57V54.61h37.16Zm0-25.16H99.51V50.6h1.72Z"/></g></g><g id="group1008-22"><g id="shape1009-23"><circle class="cls-1" cx="73.21" cy="75.13" r="12.58"/></g><g id="group1010-25"><g id="shape1011-26"><path class="cls-8" d="M78.13,69.36a17.41,17.41,0,0,1-4.29.68v4.8A21,21,0,0,0,79,74.1,16.63,16.63,0,0,0,78.13,69.36Z"/></g><g id="shape1012-28"><path class="cls-8" d="M69.44,65A11.62,11.62,0,0,0,66,67a12.72,12.72,0,0,0,1.66.8A11,11,0,0,1,69.44,65Z"/></g><g id="shape1013-30"><path class="cls-8" d="M68.75,68.27a16.57,16.57,0,0,0,3.89.62V64.32h-.46C70.87,64.78,69.66,66.26,68.75,68.27Z"/></g><g id="shape1014-32"><path class="cls-8" d="M67.5,74a21,21,0,0,0,5.2.74V70a17.49,17.49,0,0,1-4.29-.69A16.69,16.69,0,0,0,67.5,74Z"/></g><g id="shape1015-34"><path class="cls-8" d="M80.18,75.08a18.93,18.93,0,0,1-.51,4.51,16,16,0,0,0,4.17-2.23,9.34,9.34,0,0,0,.23-2.23,10.87,10.87,0,0,0-.17-2,14.28,14.28,0,0,1-3.77,1.78A.22.22,0,0,1,80.18,75.08Z"/></g><g id="shape1016-36"><path class="cls-8" d="M66.36,81.3v-.17a17.58,17.58,0,0,1-3.78-1.77,11.73,11.73,0,0,0-.17,2,9.23,9.23,0,0,0,.34,2.57,15,15,0,0,0,4.12,2A19.6,19.6,0,0,1,66.36,81.3Z"/></g><g id="shape1017-38"><path class="cls-8" d="M65.21,67.87a10.65,10.65,0,0,0-2.29,4.06,12.05,12.05,0,0,0,3.49,1.77A17.05,17.05,0,0,1,67.32,69,10.72,10.72,0,0,1,65.21,67.87Z"/></g><g id="shape1018-40"><path class="cls-8" d="M73.85,68.89a16.65,16.65,0,0,0,3.89-.62c-.86-2-2.12-3.49-3.49-4h-.46v4.57Z"/></g><g id="shape1019-42"><path class="cls-8" d="M67.21,81.08a17.68,17.68,0,0,1-3.95-1.66,11,11,0,0,0,6.35,5.94A12.15,12.15,0,0,1,67.21,81.08Z"/></g><g id="shape1020-44"><path class="cls-8" d="M77.1,65a10.32,10.32,0,0,1,1.72,2.91,12.59,12.59,0,0,0,1.65-.8A10.14,10.14,0,0,0,77.1,65Z"/></g><g id="shape1021-46"><path class="cls-8" d="M83.67,71.93a10.63,10.63,0,0,0-2.28-4.06A14.45,14.45,0,0,1,79.27,69a19.64,19.64,0,0,1,.91,4.74A13.8,13.8,0,0,0,83.67,71.93Z"/></g><g id="shape1022-48"><path class="cls-8" d="M79.33,81a11.07,11.07,0,0,1-2.4,4.4,10.7,10.7,0,0,0,6.4-6.23A18,18,0,0,1,79.33,81Z"/></g><g id="shape1023-50"><path class="cls-8" d="M66.53,85.93V81.87a19.77,19.77,0,0,1-4.12-.45C63.38,83.88,64.87,85.59,66.53,85.93Z"/></g><g id="shape1024-52"><path class="cls-8" d="M79,75.25a25,25,0,0,1-5.2.74v4.74a20.11,20.11,0,0,0,4.57-.68A18.44,18.44,0,0,0,79,75.25Z"/></g><g id="shape1025-54"><path class="cls-8" d="M72.7,80.73V76a22,22,0,0,1-5.2-.74,18.15,18.15,0,0,0,.69,4.86A19.16,19.16,0,0,0,72.7,80.73Z"/></g><g id="shape1026-56"><path class="cls-8" d="M73.84,81.82v4.06c1.66-.34,3.2-2.11,4.12-4.63A14.1,14.1,0,0,1,73.84,81.82Z"/></g></g></g></g></g><g id="group1027-58"><g id="shape1028-59"><path class="cls-9" d="M352.52,13.6H338.06l-7.23,12.52,7.23,12.52h14.46l7.23-12.52Z"/></g><g id="group1029-61"><g id="shape1030-62"><path class="cls-3" d="M352.52,13.6H338.06l-7.23,12.52,7.23,12.52h14.46l7.23-12.52Zm0,18.12a2,2,0,0,1-2,2H340a2,2,0,0,1-2-2V20.52a2,2,0,0,1,2-1.95h9.56l3,3V31.72Z"/></g><g id="shape1031-64"><path class="cls-3" d="M344.16,28.13a1.48,1.48,0,0,0-.08-.29.57.57,0,0,0-.13-.19.34.34,0,0,0-.16-.1.64.64,0,0,0-.2,0,.58.58,0,0,0-.33.09.67.67,0,0,0-.2.28,1.84,1.84,0,0,0-.1.47,6.18,6.18,0,0,0,0,.65,5.2,5.2,0,0,0,0,.75,1.7,1.7,0,0,0,.11.48.49.49,0,0,0,.2.24.54.54,0,0,0,.29.07.56.56,0,0,0,.23,0,.48.48,0,0,0,.17-.12.53.53,0,0,0,.12-.21,1.11,1.11,0,0,0,.08-.29,3.33,3.33,0,0,0,.05-.37c0-.14,0-.29,0-.46s0-.38,0-.53A2.07,2.07,0,0,0,344.16,28.13Z"/></g><g id="shape1032-66"><path class="cls-3" d="M347.57,22.29a1.48,1.48,0,0,0-.08-.29.57.57,0,0,0-.13-.19.34.34,0,0,0-.16-.1.66.66,0,0,0-.21,0,.57.57,0,0,0-.32.09.67.67,0,0,0-.2.28,1.84,1.84,0,0,0-.1.47,6.18,6.18,0,0,0,0,.65,5.2,5.2,0,0,0,0,.75,1.7,1.7,0,0,0,.11.48.49.49,0,0,0,.2.24.54.54,0,0,0,.29.07.56.56,0,0,0,.23,0,.48.48,0,0,0,.17-.12.53.53,0,0,0,.12-.21,1.11,1.11,0,0,0,.08-.29,3.33,3.33,0,0,0,.05-.37c0-.14,0-.29,0-.46s0-.38,0-.53A3.34,3.34,0,0,0,347.57,22.29Z"/></g><g id="shape1033-68"><path class="cls-3" d="M349.07,19.65H340a.89.89,0,0,0-.88.89V31.72a.87.87,0,0,0,.88.88H350.6a.89.89,0,0,0,.89-.88V22.1h-2.42V19.65Zm-6.71,2.23a.2.2,0,0,1,0-.09l0-.06.07-.05.91-.59,0,0,.07,0H344l.12,0,.05,0a.07.07,0,0,1,0,0v3.52h.75a.21.21,0,0,1,0,.06.29.29,0,0,1,0,.1c0,.05,0,.1,0,.16s0,.12,0,.16a.62.62,0,0,1,0,.1.15.15,0,0,1,0,.06h-2.45a.09.09,0,0,1,0-.06.15.15,0,0,1,0-.1.71.71,0,0,1,0-.16.81.81,0,0,1,0-.16.3.3,0,0,1,0-.1.21.21,0,0,0,0-.06h.85V21.9l-.68.37a.55.55,0,0,1-.13.05.08.08,0,0,1-.07,0,.19.19,0,0,1,0-.1,1,1,0,0,1,0-.19ZM345,30a1.83,1.83,0,0,1-.27.7,1.2,1.2,0,0,1-.48.44,1.49,1.49,0,0,1-.73.16,1.54,1.54,0,0,1-.72-.15,1.19,1.19,0,0,1-.46-.43,1.93,1.93,0,0,1-.23-.69,5.14,5.14,0,0,1-.07-.92,5.08,5.08,0,0,1,.08-.92,2.13,2.13,0,0,1,.27-.7,1.32,1.32,0,0,1,.49-.45,1.83,1.83,0,0,1,1.45,0,1.1,1.1,0,0,1,.45.43,1.94,1.94,0,0,1,.24.69,6.36,6.36,0,0,1,.06.92A4.38,4.38,0,0,1,345,30ZM348.38,31a.15.15,0,0,1,0,.1.13.13,0,0,1,0,.06h-2.45s0,0,0-.06a.62.62,0,0,1,0-.1s0-.1,0-.16,0-.11,0-.16l0-.1a.09.09,0,0,1,0-.06l.05,0h.79V27.73l-.68.38-.12.05a.11.11,0,0,1-.08,0,.19.19,0,0,1,0-.1c0-.05,0-.11,0-.19s0-.1,0-.13,0-.07,0-.09l0-.06.06-.05.92-.59a.05.05,0,0,1,0,0l.06,0h.48l.11,0s.05,0,.05,0a.08.08,0,0,1,0,0v3.52h.75s0,0,0,.06l0,.1v.16A.76.76,0,0,1,348.38,31Zm.06-6.89a2.22,2.22,0,0,1-.27.7,1.29,1.29,0,0,1-.49.44,1.47,1.47,0,0,1-.72.16,1.55,1.55,0,0,1-.73-.15,1.1,1.1,0,0,1-.45-.43,2.15,2.15,0,0,1-.24-.69,6.27,6.27,0,0,1-.07-.92,4.35,4.35,0,0,1,.09-.92,1.77,1.77,0,0,1,.27-.7,1.3,1.3,0,0,1,.48-.45A1.61,1.61,0,0,1,347,21a1.54,1.54,0,0,1,.72.15,1.06,1.06,0,0,1,.46.43,1.93,1.93,0,0,1,.23.69,5.14,5.14,0,0,1,.07.92A5.08,5.08,0,0,1,348.44,24.11Z"/></g></g><g id="shape1027-70"><text class="cls-5" transform="translate(319.63 48.7)"><tspan class="cls-6">S</tspan><tspan x="4.49" y="0">torage blob</tspan></text></g></g><g id="group1035-72"><g id="shape1036-73"><path class="cls-3" d="M229.56,91.13H219.9l-5.21,14.68,6.35,0-5,14.52L229.76,101h-6.64ZM206.16,106l1.54,1.73.05,0,6.94,6.65a.85.85,0,0,0,1.09,0,.83.83,0,0,0,0-1.14L208.59,106a.86.86,0,0,1,0-1.14l7-7a.75.75,0,0,0,0-1.14.77.77,0,0,0-1.09,0l-6.84,6.64-1.54,1.54A.92.92,0,0,0,206.16,106Zm31.34,0a.9.9,0,0,0,0-1.14L236,103.28l-6.84-6.64a.77.77,0,0,0-1.09,0,.75.75,0,0,0,0,1.14l7.19,7a.86.86,0,0,1,0,1.14l-7.34,7.29a.83.83,0,0,0,0,1.14.85.85,0,0,0,1.09,0l6.79-6.75.05,0Z"/></g><g id="shape1037-75"><rect class="cls-4" x="195.9" y="121.94" width="51.87" height="25.04"/><g class="cls-10"><text class="cls-5" transform="translate(204.67 131.76)">Function </text><text class="cls-5" transform="translate(213.64 142.56)">App</text></g></g></g><g id="shape1046-95"><rect class="cls-4" x="126.63" y="108.73" width="51.87" height="35.85"/><g class="cls-10"><text class="cls-11" transform="translate(135.33 119.46)">H<tspan class="cls-12" x="5.68" y="0">T</tspan><tspan x="10.03" y="0">TP GET </tspan></text><text class="cls-11" transform="translate(141.41 129.06)">(<tspan class="cls-13" x="2.41" y="0">A</tspan><tspan class="cls-14" x="7.94" y="0">J</tspan><tspan x="10.6" y="0">AX) </tspan></text></g></g><g id="shape1055-109"><rect class="cls-4" x="57.8" y="90.73" width="51.87" height="30.53"/><g class="cls-10"><text class="cls-11" transform="translate(62.53 98.8)"><tspan xml:space="preserve">Single-page  </tspan></text><text class="cls-11" transform="translate(76.4 108.4)">web </text><text class="cls-11" transform="translate(64.24 118)">application</text></g></g><g id="shape1106-117"><path class="cls-3" d="M244.8,32.69a4,4,0,0,0-3.9-4h-.58a15.09,15.09,0,0,0,.44-2.74,10.45,10.45,0,0,0-10.4-10.4,10.62,10.62,0,0,0-9.82,7.08,10.53,10.53,0,0,0-2.31-.44,7,7,0,0,0-7.07,7.22,7.12,7.12,0,0,0,7.07,7.22h22.82A3.85,3.85,0,0,0,244.8,32.69Zm-44.32-7.07a1.88,1.88,0,1,0,0,3.75h9a8.49,8.49,0,0,1,.86-3.75ZM210.15,33h-7.07a1.88,1.88,0,1,0,0,3.75h9.81A9.11,9.11,0,0,1,210.15,33Zm9.38-12.42a11.68,11.68,0,0,1,2.17-3H206.25a1.88,1.88,0,1,0,0,3.76h8.38a8,8,0,0,1,3.75-.87A2.88,2.88,0,0,0,219.53,20.56Z"/><text class="cls-5" transform="translate(217.21 50.13)">CDN</text></g><g id="shape2001-128"><line class="cls-15" x1="311.34" y1="107.15" x2="249.78" y2="107.15"/><polygon class="cls-16" points="310.07 102.81 317.59 107.15 310.07 111.49 310.07 102.81"/></g><g id="shape2002-131"><rect class="cls-4" x="126.63" y="15.51" width="51.87" height="13.06"/><text class="cls-11" transform="translate(135.33 24.44)">H<tspan class="cls-12" x="5.68" y="0">T</tspan><tspan x="10.03" y="0">TP GET</tspan></text></g><g id="shape4-163"><g class="cls-17"><path id="mfid12" class="cls-18" d="M19.52,62.34a6.36,6.36,0,1,1,6.32,6.3A6.31,6.31,0,0,1,19.52,62.34ZM36,78.84a10.22,10.22,0,0,0-20.44,0"/></g></g><line class="cls-15" x1="311.34" y1="26.05" x2="256.12" y2="26.05"/><polygon class="cls-16" points="310.07 21.71 317.59 26.05 310.07 30.39 310.07 21.71"/><g id="shape2001-128-2" data-name="shape2001-128"><path class="cls-15" d="M189.58,107.4h-63V69"/><polygon class="cls-16" points="188.31 103.06 195.83 107.4 188.31 111.74 188.31 103.06"/></g><g id="shape2001-128-3" data-name="shape2001-128"><path class="cls-15" d="M187.76,29.29H126.63V69.35"/><polygon class="cls-16" points="186.49 24.95 194 29.29 186.49 33.63 186.49 24.95"/></g><line class="cls-15" x1="105.7" y1="67.95" x2="125.67" y2="67.95"/><use width="90" height="80" transform="matrix(0.32, 0, 0, -0.32, 330.88, 120.32)" xlink:href="#A"/></svg>